Patient4_TMGait_0pt6_02_left_33_GRF.mot
version=1
nRows=52
nColumns=19
inDegrees=no
endheader
time	F1x	F1y	F1z	M1x	M1y	M1z	F2x	F2y	F2z	M2x	M2y	M2z	EC1x	EC1y	EC1z	EC2x	EC2y	EC2z
40.29	16.373	-1.4905	0.50216	1.3237	1.6508	-8.3009	-40.3017	732.4015	-54.2239	293.1779	74.3015	788.1666	-0.0592	0.0182	-0.0073	-0.0462	0.0165	0.9585
40.3021	10.7267	-0.018947	0.31913	0.57426	1.0262	-4.3275	-36.8708	732.2893	-54.9356	293.2883	73.3487	783.5806	-0.0592	0.0182	-0.0073	-0.0462	0.0165	0.9585
40.3143	6.0512	1.2549	0.19363	-0.072772	0.49191	-0.9913	-33.5083	734.0009	-55.4875	294.041	72.2191	780.6602	-0.0592	0.0182	-0.0073	-0.0462	0.0165	0.9585
40.3264	2.5588	2.273	0.11586	-0.58175	0.08237	1.5665	-30.3345	737.7393	-55.8484	295.5242	70.9473	779.7618	-0.0592	0.0182	-0.0073	-0.0462	0.0165	0.9585
40.3386	0.17445	3.0304	0.077581	-0.94985	-0.21098	3.3618	-27.3716	743.3165	-56.0206	297.687	69.5588	780.7475	-0.0592	0.0182	-0.0073	-0.0462	0.0165	0.9585
40.3507	-1.2771	3.5339	0.069316	-1.1891	-0.40535	4.4677	-24.5868	750.2442	-56.0252	300.3583	68.0732	783.1339	-0.0592	0.0182	-0.0073	-0.0462	0.0165	0.9585
40.3629	-2.0544	3.7883	0.082176	-1.3138	-0.53464	5.0115	-21.9009	757.8031	-55.9048	303.2744	66.5107	786.1665	-0.0592	0.0182	-0.0073	-0.0462	0.0165	0.9585
40.375	-2.3604	3.7548	0.11395	-1.3241	-0.62362	5.0392	-19.2568	765.1935	-55.6835	306.1269	64.8783	789.026	-0.0592	0.0182	-0.0073	-0.0462	0.0165	0.9585
40.3871	-2.4116	3.4102	0.16006	-1.2147	-0.70023	4.6206	-16.5766	771.5666	-55.4021	308.5855	63.192	790.8432	-0.0592	0.0182	-0.0073	-0.0462	0.0165	0.9585
40.3993	-2.3086	2.6768	0.22354	-0.96384	-0.77465	3.6902	-13.8582	776.1699	-55.0737	310.3505	61.4591	790.8843	-0.0592	0.0182	-0.0073	-0.0462	0.0165	0.9585
40.4114	-2.1789	1.4914	0.29821	-0.55047	-0.85733	2.2278	-11.0615	778.3866	-54.7236	311.1742	59.6893	788.5443	-0.0592	0.0182	-0.0073	-0.0462	0.0165	0.9585
40.4236	-2.0325	-0.23516	0.38144	0.051177	-0.93783	0.13375	-8.1974	777.7913	-54.3417	310.8817	57.8704	783.4389	-0.0592	0.0182	-0.0073	-0.0462	0.0165	0.9585
40.4357	-1.9022	-2.5069	0.45088	0.84508	-0.9965	-2.5561	-5.2476	774.1381	-53.938	309.37	56.002	775.3598	-0.0592	0.0182	-0.0073	-0.0462	0.0165	0.9585
40.4479	-1.7206	-5.2514	0.4894	1.8029	-0.99086	-5.7687	-2.2319	767.4177	-53.5026	306.6288	54.0724	764.3357	-0.0592	0.0182	-0.0073	-0.0462	0.0165	0.9585
40.46	-1.4429	-8.1753	0.46355	2.8215	-0.86567	-9.1539	0.84132	757.8719	-53.0526	302.7499	52.0955	750.6228	-0.0592	0.0182	-0.0073	-0.0462	0.0165	0.9585
40.4721	-0.95127	-10.7141	0.3393	3.6979	-0.54389	-12.0876	3.9445	746.0415	-52.5981	297.9428	50.0851	734.7706	-0.0592	0.0182	-0.0073	-0.0462	0.0165	0.9585
40.4843	-0.15568	-11.8862	0.061237	4.0848	0.06705	-13.4569	7.0478	732.7072	-52.1925	292.5127	48.0952	717.5384	-0.0592	0.0182	-0.0073	-0.0462	0.0165	0.9585
40.4964	1.0575	-10.2248	-0.42219	3.4605	1.0626	-11.6127	10.1312	718.8092	-51.871	286.8285	46.1653	699.8338	-0.0592	0.0182	-0.0073	-0.0462	0.0165	0.9585
40.5086	2.7512	-3.7441	-1.1569	1.1212	2.5137	-4.3047	13.175	705.2545	-51.6951	281.248	44.3594	682.5422	-0.0592	0.0182	-0.0073	-0.0462	0.0165	0.9585
40.5207	4.911	10.0033	-2.165	-3.798	4.4336	11.2355	16.1864	692.7236	-51.6839	276.0429	42.6996	666.3316	-0.0592	0.0182	-0.0073	-0.0462	0.0165	0.9585
40.5329	7.3812	33.6496	-3.4054	-12.2243	6.7139	37.9966	19.149	681.4872	-51.812	271.3243	41.1763	651.4996	-0.0592	0.0182	-0.0073	-0.0462	0.0165	0.9585
40.545	9.7766	69.4999	-4.756	-24.9633	9.0674	78.617	22.0705	671.2494	-51.9703	266.9878	39.7013	637.8017	-0.0592	0.0182	-0.0073	-0.0462	0.0165	0.9585
40.5571	11.4142	118.6284	-5.9424	-42.375	10.9217	134.3459	24.9014	661.1585	-51.9662	262.7104	38.1322	624.5015	-0.0592	0.0182	-0.0073	-0.0462	0.0165	0.9585
40.5693	11.1909	179.5872	-6.5217	-63.9127	11.3643	203.5799	27.564	649.8274	-51.5416	257.9655	36.2816	610.3575	-0.0592	0.0182	-0.0073	-0.0462	0.0165	0.9585
40.5814	7.8362	246.8639	-5.8042	-87.5829	9.1684	280.0968	29.9023	635.5833	-50.4154	252.1097	33.9735	593.9024	-0.0592	0.0182	-0.0073	-0.0462	0.0165	0.9585
40.5936	1.436	310.6617	-2.956	-109.8679	3.4505	352.793	31.7591	616.7399	-48.3787	244.4941	31.0927	573.6306	-0.0592	0.0182	-0.0073	-0.0462	0.0165	0.9585
40.6057	-5.5922	361.0249	2.7159	-127.246	-5.6006	410.1401	32.9665	592.0928	-45.3971	234.6489	27.6795	548.4722	-0.0592	0.0182	-0.0073	-0.0462	0.0165	0.9585
40.6179	-11.6665	394.711	9.8976	-138.6103	-15.9414	448.2245	33.4787	561.35	-41.701	222.4387	23.9665	518.1478	-0.0592	0.0182	-0.0073	-0.0462	0.0165	0.9585
40.63	-16.042	414.3991	17.4835	-144.9608	-26.0512	469.9672	33.3349	525.0716	-37.7512	208.053	20.3328	483.1363	-0.0592	0.0182	-0.0073	-0.0462	0.0165	0.9585
40.6421	-18.8192	425.4093	24.2302	-148.2463	-34.58	481.5438	32.7217	484.403	-33.9885	191.9154	17.0858	444.4261	-0.0592	0.0182	-0.0073	-0.0462	0.0165	0.9585
40.6543	-20.3248	433.1066	29.4319	-150.4052	-40.8684	489.0978	31.7716	440.7465	-30.5595	174.5722	14.2911	403.2562	-0.0592	0.0182	-0.0073	-0.0462	0.0165	0.9585
40.6664	-21.1481	441.36	32.8375	-152.8208	-44.8445	497.1533	30.5475	395.4837	-27.413	156.5779	11.8784	360.869	-0.0592	0.0182	-0.0073	-0.0462	0.0165	0.9585
40.6786	-21.5615	452.4561	34.5889	-156.2862	-46.8	508.2054	29.0224	349.857	-24.3531	138.4395	9.6942	318.3918	-0.0592	0.0182	-0.0073	-0.0462	0.0165	0.9585
40.6907	-21.8012	467.7328	35.4471	-161.2039	-47.6418	523.8017	27.0646	304.8834	-21.2686	120.5733	7.6943	276.7741	-0.0592	0.0182	-0.0073	-0.0462	0.0165	0.9585
40.7029	-21.8	487.7815	36.0309	-167.721	-48.0701	544.5144	24.5878	261.4091	-18.1283	103.3221	5.892	236.7749	-0.0592	0.0182	-0.0073	-0.0462	0.0165	0.9585
40.715	-21.7334	512.5182	37.2591	-175.7391	-49.1232	570.2465	21.5316	220.1951	-15.0734	86.9793	4.4288	199.0864	-0.0592	0.0182	-0.0073	-0.0462	0.0165	0.9585
40.7271	-21.7918	541.1934	39.3804	-184.9894	-51.168	600.0596	18.011	181.9069	-12.2522	71.8075	3.3849	164.2458	-0.0592	0.0182	-0.0073	-0.0462	0.0165	0.9585
40.7393	-22.0945	573.0971	42.629	-195.2294	-54.4782	633.1337	14.186	147.1824	-9.8204	58.0476	2.8185	132.8032	-0.0592	0.0182	-0.0073	-0.0462	0.0165	0.9585
40.7514	-22.6069	607.6512	46.4384	-206.3117	-58.4635	668.6949	10.379	116.4473	-7.8135	45.8704	2.6318	105.051	-0.0592	0.0182	-0.0073	-0.0462	0.0165	0.9585
40.7636	-23.2458	644.0274	50.5127	-217.9914	-62.7599	705.7966	6.7981	89.9143	-6.2148	35.3592	2.7104	81.166	-0.0592	0.0182	-0.0073	-0.0462	0.0165	0.9585
40.7757	-23.8579	680.9292	54.3697	-229.8631	-66.8065	742.974	3.7102	67.499	-4.9502	26.491	2.8826	61.0006	-0.0592	0.0182	-0.0073	-0.0462	0.0165	0.9585
40.7879	-24.32	716.6311	57.9908	-241.345	-70.5178	778.3794	1.1902	48.984	-3.9325	19.1769	3.0254	44.3744	-0.0592	0.0182	-0.0073	-0.0462	0.0165	0.9585
40.8	-24.5446	749.316	61.2409	-251.827	-73.713	810.0927	-0.63889	33.9911	-3.0739	13.2723	3.0172	30.9017	-0.0592	0.0182	-0.0073	-0.0462	0.0165	0.9585
40.8121	-24.3817	777.4395	64.1456	-260.7842	-76.3577	836.5076	-1.8056	22.2112	-2.3086	8.6448	2.8065	20.3443	-0.0592	0.0182	-0.0073	-0.0462	0.0165	0.9585
40.8243	-23.7699	799.8613	66.5629	-267.8459	-78.2739	856.4858	-2.2975	13.2934	-1.6151	5.157	2.3828	12.3557	-0.0592	0.0182	-0.0073	-0.0462	0.0165	0.9585
40.8364	-22.5909	815.9035	68.4082	-272.7946	-79.3412	869.3655	-2.2689	6.9751	-1.0045	2.6947	1.819	6.7175	-0.0592	0.0182	-0.0073	-0.0462	0.0165	0.9585
40.8486	-20.8656	825.3217	69.6401	-275.556	-79.5241	875.0099	-1.9061	2.8998	-0.52059	1.1139	1.2412	3.0769	-0.0592	0.0182	-0.0073	-0.0462	0.0165	0.9585
40.8607	-18.5926	828.2919	70.2249	-276.1936	-78.8074	873.6838	-1.443	0.60244	-0.17517	0.22995	0.75025	1.0317	-0.0592	0.0182	-0.0073	-0.0462	0.0165	0.9585
40.8729	-15.8966	825.4527	70.251	-274.9169	-77.3211	866.1783	-0.97648	-0.42438	0.0418	-0.15514	0.3814	0.1149	-0.0592	0.0182	-0.0073	-0.0462	0.0165	0.9585
40.885	-12.8535	817.827	69.7245	-272.0663	-75.1153	853.6235	-0.57777	-0.6247	0.15684	-0.21674	0.13727	-0.071391	-0.0592	0.0182	-0.0073	-0.0462	0.0165	0.9585
40.8971	-9.6205	806.7553	68.8192	-268.0778	-72.4193	837.494	-0.2796	-0.34971	0.2002	-0.093379	-0.00023478	0.15986	-0.0592	0.0182	-0.0073	-0.0462	0.0165	0.9585
40.9093	-6.2852	793.6623	67.5808	-263.4284	-69.3334	819.284	-0.060482	0.15321	0.19363	0.11823	-0.058217	0.57967	-0.0592	0.0182	-0.0073	-0.0462	0.0165	0.9585
